<svg id="visual" viewBox="0 0 900 600" width="900" height="600" xmlns="http://www.w3.org/2000/svg" xmlns:xlink="http://www.w3.org/1999/xlink" version="1.1"><path d="M0 432L21.5 430.8C43 429.7 86 427.3 128.8 423.8C171.7 420.3 214.3 415.7 257.2 419.5C300 423.3 343 435.7 385.8 436.7C428.7 437.7 471.3 427.3 514.2 426.8C557 426.3 600 435.7 642.8 436C685.7 436.3 728.3 427.7 771.2 414.2C814 400.7 857 382.3 878.5 373.2L900 364L900 601L878.5 601C857 601 814 601 771.2 601C728.3 601 685.7 601 642.8 601C600 601 557 601 514.2 601C471.3 601 428.7 601 385.8 601C343 601 300 601 257.2 601C214.3 601 171.7 601 128.8 601C86 601 43 601 21.5 601L0 601Z" fill="#e34f26"></path><path d="M0 476L21.5 466.7C43 457.3 86 438.7 128.8 428.2C171.7 417.7 214.3 415.3 257.2 425.2C300 435 343 457 385.8 468.2C428.7 479.3 471.3 479.7 514.2 467.7C557 455.7 600 431.3 642.8 421C685.7 410.7 728.3 414.3 771.2 425.5C814 436.7 857 455.3 878.5 464.7L900 474L900 601L878.5 601C857 601 814 601 771.2 601C728.3 601 685.7 601 642.8 601C600 601 557 601 514.2 601C471.3 601 428.7 601 385.8 601C343 601 300 601 257.2 601C214.3 601 171.7 601 128.8 601C86 601 43 601 21.5 601L0 601Z" fill="#d6441f"></path><path d="M0 455L21.5 453.3C43 451.7 86 448.3 128.8 447.2C171.7 446 214.3 447 257.2 457.2C300 467.3 343 486.7 385.8 490.7C428.7 494.7 471.3 483.3 514.2 473.8C557 464.3 600 456.7 642.8 451.8C685.7 447 728.3 445 771.2 447.3C814 449.7 857 456.3 878.5 459.7L900 463L900 601L878.5 601C857 601 814 601 771.2 601C728.3 601 685.7 601 642.8 601C600 601 557 601 514.2 601C471.3 601 428.7 601 385.8 601C343 601 300 601 257.2 601C214.3 601 171.7 601 128.8 601C86 601 43 601 21.5 601L0 601Z" fill="#c93818"></path><path d="M0 527L21.5 527.5C43 528 86 529 128.8 531.3C171.7 533.7 214.3 537.3 257.2 530C300 522.7 343 504.3 385.8 499.2C428.7 494 471.3 502 514.2 506C557 510 600 510 642.8 510C685.7 510 728.3 510 771.2 506.7C814 503.3 857 496.7 878.5 493.3L900 490L900 601L878.5 601C857 601 814 601 771.2 601C728.3 601 685.7 601 642.8 601C600 601 557 601 514.2 601C471.3 601 428.7 601 385.8 601C343 601 300 601 257.2 601C214.3 601 171.7 601 128.8 601C86 601 43 601 21.5 601L0 601Z" fill="#bc2c11"></path><path d="M0 534L21.5 536.8C43 539.7 86 545.3 128.8 547.5C171.7 549.7 214.3 548.3 257.2 547C300 545.7 343 544.3 385.8 541C428.7 537.7 471.3 532.3 514.2 529.3C557 526.3 600 525.7 642.8 529C685.7 532.3 728.3 539.7 771.2 544.3C814 549 857 551 878.5 552L900 553L900 601L878.5 601C857 601 814 601 771.2 601C728.3 601 685.7 601 642.8 601C600 601 557 601 514.2 601C471.3 601 428.7 601 385.8 601C343 601 300 601 257.2 601C214.3 601 171.7 601 128.8 601C86 601 43 601 21.5 601L0 601Z" fill="#b01f09"></path></svg>